<svg height="496pt" viewBox="0 0 496 496" width="496pt" xmlns="http://www.w3.org/2000/svg"><path d="m412.832031 352.246094c10.40625-8.308594 18.425781-19.453125 22.96875-32.246094h4.199219c17.648438 0 32-14.351562 32-32 0-11.792969-6.480469-22-16-27.550781v-36.449219c0-35.289062-28.710938-64-64-64h-48c-8.488281 0-16.585938 1.695312-24 4.710938v-124.710938c0-4.425781-3.574219-8-8-8h-8v-24c0-4.425781-3.574219-8-8-8h-176c-4.425781 0-8 3.574219-8 8v24h-8c-4.425781 0-8 3.574219-8 8v216h-88c-4.425781 0-8 3.574219-8 8v224c0 4.425781 3.574219 8 8 8h144c4.425781 0 8-3.574219 8-8v-24h80v24c0 4.425781 3.574219 8 8 8h240c4.425781 0 8-3.574219 8-8v-48c0-46.894531-36.894531-85.222656-83.167969-87.753906zm-29.480469 15.753906-15.351562 19.191406-15.351562-19.191406zm-51.199218 0 25.128906 31.40625-24.359375 24.363281-11.097656-55.464843c2.039062-.167969 4.085937-.304688 6.175781-.304688zm71.695312 0h4.152344c2.089844 0 4.136719.136719 6.175781.3125l-11.097656 55.464844-24.359375-24.363282zm-35.847656-16c-30.871094 0-56-25.128906-56-56v-24h24c16.992188 0 32.214844-7.640625 42.496094-19.632812 4.847656 11.519531 16.238281 19.632812 29.503906 19.632812h16v24c0 30.871094-25.128906 56-56 56zm-71.527344-48h-.472656c-8.824219 0-16-7.175781-16-16s7.175781-16 16-16v24c0 2.703125.175781 5.367188.472656 8zm143.527344 0h-.472656c.296875-2.632812.472656-5.296875.472656-8v-24c8.824219 0 16 7.175781 16 16s-7.175781 16-16 16zm-48-128c26.472656 0 48 21.527344 48 48v32h-32c-8.824219 0-16-7.175781-16-16v-32h-16v8c0 22.054688-17.945312 40-40 40h-40v-32c0-26.472656 21.527344-48 48-48zm-264-160h160v16h-160zm16 464h-128v-208h128zm16-32v-184c0-4.425781-3.574219-8-8-8h-40v-208h192v126.121094c-14.609375 11.742187-24 29.71875-24 49.878906v36.449219c-9.519531 5.550781-16 15.757812-16 27.550781 0 17.648438 14.351562 32 32 32h4.199219c4.542969 12.792969 12.5625 23.929688 22.96875 32.246094-46.273438 2.53125-83.167969 40.859375-83.167969 87.753906v8zm320 32h-224v-40c0-32.078125 21.089844-59.296875 50.128906-68.574219l14.03125 70.148438c.574219 2.890625 2.703125 5.234375 5.519532 6.089843.769531.222657 1.542968.335938 2.320312.335938 2.097656 0 4.136719-.824219 5.65625-2.34375l34.34375-34.34375 34.34375 34.34375c1.519531 1.519531 3.558594 2.34375 5.65625 2.34375.777344 0 1.550781-.113281 2.320312-.34375 2.824219-.847656 4.945313-3.191406 5.519532-6.089844l14.03125-70.152344c29.039062 9.289063 50.128906 36.507813 50.128906 68.585938zm0 0"/><path d="m168 64h-32c-4.425781 0-8 3.574219-8 8v32c0 4.425781 3.574219 8 8 8h32c4.425781 0 8-3.574219 8-8v-32c0-4.425781-3.574219-8-8-8zm-8 32h-16v-16h16zm0 0"/><path d="m200 112h32c4.425781 0 8-3.574219 8-8v-32c0-4.425781-3.574219-8-8-8h-32c-4.425781 0-8 3.574219-8 8v32c0 4.425781 3.574219 8 8 8zm8-32h16v16h-16zm0 0"/><path d="m168 128h-32c-4.425781 0-8 3.574219-8 8v32c0 4.425781 3.574219 8 8 8h32c4.425781 0 8-3.574219 8-8v-32c0-4.425781-3.574219-8-8-8zm-8 32h-16v-16h16zm0 0"/><path d="m200 176h32c4.425781 0 8-3.574219 8-8v-32c0-4.425781-3.574219-8-8-8h-32c-4.425781 0-8 3.574219-8 8v32c0 4.425781 3.574219 8 8 8zm8-32h16v16h-16zm0 0"/><path d="m168 192h-32c-4.425781 0-8 3.574219-8 8v32c0 4.425781 3.574219 8 8 8h32c4.425781 0 8-3.574219 8-8v-32c0-4.425781-3.574219-8-8-8zm-8 32h-16v-16h16zm0 0"/><path d="m200 240h32c4.425781 0 8-3.574219 8-8v-32c0-4.425781-3.574219-8-8-8h-32c-4.425781 0-8 3.574219-8 8v32c0 4.425781 3.574219 8 8 8zm8-32h16v16h-16zm0 0"/><path d="m200 304h32c4.425781 0 8-3.574219 8-8v-32c0-4.425781-3.574219-8-8-8h-32c-4.425781 0-8 3.574219-8 8v32c0 4.425781 3.574219 8 8 8zm8-32h16v16h-16zm0 0"/><path d="m200 368h32c4.425781 0 8-3.574219 8-8v-32c0-4.425781-3.574219-8-8-8h-32c-4.425781 0-8 3.574219-8 8v32c0 4.425781 3.574219 8 8 8zm8-32h16v16h-16zm0 0"/><path d="m240 392c0-4.425781-3.574219-8-8-8h-32c-4.425781 0-8 3.574219-8 8v32c0 4.425781 3.574219 8 8 8h32c4.425781 0 8-3.574219 8-8zm-16 24h-16v-16h16zm0 0"/><path d="m32 288h48v16h-48zm0 0"/><path d="m32 320h48v16h-48zm0 0"/><path d="m32 352h48v16h-48zm0 0"/><path d="m80 384h48v16h-48zm0 0"/><path d="m80 416h48v16h-48zm0 0"/><path d="m80 448h48v16h-48zm0 0"/></svg>