<svg id="Layer_3" enable-background="new 0 0 64 64" height="512" viewBox="0 0 64 64" width="512" xmlns="http://www.w3.org/2000/svg"><path d="m55 1h-46c-.552 0-1 .447-1 1v60c0 .553.448 1 1 1h46c.552 0 1-.447 1-1v-60c0-.553-.448-1-1-1zm-1 60h-44v-58h44z"/><path d="m21 45c2.757 0 5-2.243 5-5s-2.243-5-5-5-5 2.243-5 5 2.243 5 5 5zm0-8c1.654 0 3 1.346 3 3s-1.346 3-3 3-3-1.346-3-3 1.346-3 3-3z"/><path d="m14 58c0 .404.244.77.617.924.374.155.803.069 1.09-.217l5.293-5.293 5.293 5.293c.191.191.447.293.707.293.129 0 .259-.024.383-.076.373-.154.617-.52.617-.924v-12.356c1.248-1.545 2-3.508 2-5.644 0-4.963-4.038-9-9-9s-9 4.037-9 9c0 2.137.752 4.099 2 5.644zm7.707-6.707c-.391-.391-1.023-.391-1.414 0l-4.293 4.293v-8.108c1.431.96 3.151 1.522 5 1.522s3.569-.562 5-1.522v8.108zm-.707-18.293c3.86 0 7 3.141 7 7s-3.14 7-7 7-7-3.141-7-7 3.14-7 7-7z"/><path d="m32 43h20v2h-20z"/><path d="m32 47h20v2h-20z"/><path d="m32 39h20v2h-20z"/><path d="m32 35h20v2h-20z"/><path d="m32 31h20v2h-20z"/><path d="m28 21h8c.552 0 1-.447 1-1v-4c0-1.723-.876-3.245-2.207-4.145.743-.727 1.207-1.736 1.207-2.855 0-2.206-1.794-4-4-4s-4 1.794-4 4c0 1.119.464 2.128 1.207 2.855-1.331.9-2.207 2.422-2.207 4.145v4c0 .553.448 1 1 1zm2-12c0-1.103.897-2 2-2s2 .897 2 2-.897 2-2 2-2-.897-2-2zm-1 7c0-1.654 1.346-3 3-3s3 1.346 3 3v3h-6z"/><path d="m13 29h38c.552 0 1-.447 1-1v-4c0-.553-.448-1-1-1h-38c-.552 0-1 .447-1 1v4c0 .553.448 1 1 1zm1-4h36v2h-36z"/><path d="m51 51h-18c-.552 0-1 .447-1 1v6c0 .553.448 1 1 1h18c.552 0 1-.447 1-1v-6c0-.553-.448-1-1-1zm-1 6h-16v-4h16z"/></svg>