<svg width="24" height="23" viewBox="0 0 24 23" version="1.1" xmlns="http://www.w3.org/2000/svg" xmlns:xlink="http://www.w3.org/1999/xlink">
<title>sales</title>
<desc>Created using Figma</desc>
<g id="Canvas" transform="translate(18595 -6093)">
<g id="sales">
<g id="Group">
<g id="Vector">
<use xlink:href="#path0_fill" transform="translate(-18595 6093)" fill="#F35757"/>
</g>
<g id="Vector">
<use xlink:href="#path1_fill" transform="translate(-18586.3 6100.44)" fill="#F35757"/>
</g>
<g id="Vector">
<use xlink:href="#path2_fill" transform="translate(-18581.3 6106.3)" fill="#F35757"/>
</g>
</g>
</g>
</g>
<defs>
<path id="path0_fill" d="M 21.709 8.30606L 21.7084 4.38518L 17.9983 3.17521L 15.709 -5.27966e-09L 12 1.21665L 8.29089 8.14024e-05L 6.00166 3.17521L 2.29158 4.38518L 2.29102 8.30614L 0 11.4783L 2.2911 14.6505L 2.29158 18.5713L 6.00166 19.7813L 8.29098 22.9565L 12 21.7399L 15.7091 22.9564L 17.9983 19.7813L 21.7084 18.5713L 21.709 14.6504L 24 11.4783L 21.709 8.30606L 21.709 8.30606ZM 7.81893 10.3609C 7.41886 9.95615 7.19587 9.44675 7.19587 8.83256L 7.19587 8.28278C 7.19587 7.66387 7.41764 7.15088 7.81536 6.74382C 8.21316 6.33683 8.79031 6.13338 9.52429 6.13338C 10.2676 6.13338 10.8275 6.33683 11.2251 6.74382C 11.6229 7.15088 11.8111 7.66395 11.8111 8.28278L 11.8111 8.83256C 11.8111 9.45155 11.6286 9.96209 11.2308 10.3642C 10.8331 10.7666 10.264 10.9676 9.5302 10.9676C 8.79161 10.9677 8.21907 10.7654 7.81893 10.3609ZM 9.92622 15.902L 8.81128 15.3378L 13.8607 7.21162L 14.9758 7.77581L 9.92622 15.902L 9.92622 15.902ZM 16.7502 14.6811C 16.7502 15.3047 16.5565 15.8177 16.1612 16.22C 15.7658 16.6222 15.2033 16.8231 14.4694 16.8231C 13.7309 16.8231 13.1531 16.621 12.7482 16.2163C 12.3436 15.8117 12.135 15.2999 12.135 14.6811L 12.135 14.1312C 12.135 13.5171 12.3433 13.0065 12.7458 12.5994C 13.1481 12.1923 13.7199 11.9889 14.4537 11.9889C 15.197 11.9889 15.764 12.1914 16.1594 12.5957C 16.5547 13.0005 16.7502 13.5123 16.7502 14.1312L 16.7502 14.6811L 16.7502 14.6811Z"/>
<path id="path1_fill" d="M 1.35809 1.98324C 1.48829 1.82472 1.53841 1.62721 1.53841 1.39063L 1.53841 0.844259C 1.53841 0.607915 1.48699 0.408126 1.35445 0.244892C 1.22174 0.0816578 1.03997 2.733e-07 0.79382 2.733e-07C 0.552451 2.733e-07 0.348167 0.0816578 0.215701 0.244892C 0.0831553 0.408126 1.33433e-07 0.607915 1.33433e-07 0.844259L 1.33433e-07 1.39063C 1.33433e-07 1.62721 0.0869607 1.82472 0.219426 1.98324C 0.351972 2.14158 0.546621 2.2208 0.797706 2.2208C 1.03907 2.2208 1.22781 2.14158 1.35809 1.98324L 1.35809 1.98324Z"/>
<path id="path2_fill" d="M 0.783941 -5.86353e-07C 0.537715 -5.86353e-07 0.339827 0.081821 0.207443 0.244892C 0.0745728 0.408127 -4.84311e-07 0.605718 -4.84311e-07 0.837421L -4.84311e-07 1.38354C -4.84311e-07 1.61085 0.0841264 1.80698 0.235781 1.97265C 0.387274 2.13817 0.576094 2.2208 0.7939 2.2208C 1.08741 2.2208 1.28214 2.14761 1.38643 2.00082C 1.49039 1.85428 1.53841 1.64854 1.53841 1.38354L 1.53841 0.837421C 1.53841 0.605636 1.47728 0.408127 1.3423 0.244892C 1.20733 0.081821 1.02531 -5.86353e-07 0.783941 -5.86353e-07Z"/>
</defs>
</svg>
