<svg width="21" height="10" viewBox="0 0 21 10" fill="none" xmlns="http://www.w3.org/2000/svg">
<path d="M19.9256 2.37453L19.9257 2.37475L19.9346 2.36706C20.1262 2.20023 20.25 1.96133 20.25 1.68918C20.25 1.14064 19.7481 0.75 19.2083 0.75C18.9323 0.75 18.677 0.843727 18.4868 1.00723L10.5 7.33168L2.51318 1.00722C2.32296 0.843723 2.06771 0.75 1.79167 0.75C1.25185 0.75 0.75 1.14064 0.75 1.68918C0.75 1.96133 0.873797 2.20023 1.06543 2.36706L1.06525 2.36726L1.07444 2.37453L9.77851 9.26294C9.96872 9.42642 10.224 9.52014 10.5 9.52014C10.776 9.52014 11.0313 9.42642 11.2215 9.26294L19.9256 2.37453Z" fill="#CBCFD3" stroke="#CBCFD3" stroke-width="0.5"/>
</svg>
